<?xml version="1.0" encoding="UTF-8"?>
<svg width="1245px" height="1151px" viewBox="0 0 1245 1151" version="1.1" xmlns="http://www.w3.org/2000/svg" xmlns:xlink="http://www.w3.org/1999/xlink">
    <!-- Generator: sketchtool 55.2 (78181) - https://sketchapp.com -->
    <title>4FC7FC2F-EC6E-4357-BC7D-3546B8F832C7</title>
    <desc>Created with sketchtool.</desc>
    <g id="Desktop" stroke="none" stroke-width="1" fill="none" fill-rule="evenodd" opacity="0.3">
        <g id="Homepage" fill="#FFFFFF">
            <g id="Stars---1" transform="translate(-191.000000, -209.000000)">
                <circle id="Oval" cx="276.910945" cy="253.67795" r="1.5"></circle>
                <circle id="Oval-Copy-17" cx="652.910945" cy="221.67795" r="1.5"></circle>
                <circle id="Oval-Copy-3" cx="360.910945" cy="359.67795" r="1.5"></circle>
                <circle id="Oval-Copy-6" cx="261.910945" cy="513.67795" r="1.5"></circle>
                <circle id="Oval-Copy-4" cx="451.910945" cy="225.67795" r="1.5"></circle>
                <circle id="Oval-Copy-16" cx="562.910945" cy="270.67795" r="1.5"></circle>
                <circle id="Oval-Copy-7" cx="512.910945" cy="332.67795" r="1"></circle>
                <circle id="Oval-Copy-8" cx="330.910945" cy="227.67795" r="1"></circle>
                <circle id="Oval-Copy-8" cx="371.410945" cy="248.17795" r="1"></circle>
                <circle id="Oval-Copy-9" cx="249.910945" cy="215.67795" r="1"></circle>
                <circle id="Oval-Copy-10" cx="222.910945" cy="284.67795" r="1"></circle>
                <circle id="Oval-Copy-11" cx="304.910945" cy="325.67795" r="1"></circle>
                <circle id="Oval-Copy-15" cx="237.910945" cy="436.67795" r="1"></circle>
                <circle id="Oval-Copy-12" cx="215.910945" cy="367.67795" r="1"></circle>
                <circle id="Oval-Copy-14" cx="296.910945" cy="395.67795" r="1"></circle>
                <circle id="Oval-Copy-5" cx="199.910945" cy="208.67795" r="1.5"></circle>
                <circle id="Oval-Copy-2" cx="237.910945" cy="335.67795" r="1.5"></circle>
                <circle id="Oval-Copy-13" cx="312.910945" cy="478.67795" r="1.5"></circle>
                <circle id="Oval" transform="translate(516.910945, 343.677950) scale(-1, -1) translate(-516.910945, -343.677950) " cx="516.910945" cy="343.67795" r="1.5"></circle>
                <circle id="Oval-Copy-3" transform="translate(600.910945, 449.677950) scale(-1, -1) translate(-600.910945, -449.677950) " cx="600.910945" cy="449.67795" r="1.5"></circle>
                <circle id="Oval-Copy-6" transform="translate(501.910945, 603.677950) scale(-1, -1) translate(-501.910945, -603.677950) " cx="501.910945" cy="603.67795" r="1.5"></circle>
                <circle id="Oval-Copy-4" transform="translate(691.910945, 315.677950) scale(-1, -1) translate(-691.910945, -315.677950) " cx="691.910945" cy="315.67795" r="1.5"></circle>
                <circle id="Oval-Copy-21" transform="translate(584.910945, 420.677950) scale(-1, -1) translate(-584.910945, -420.677950) " cx="584.910945" cy="420.67795" r="1.5"></circle>
                <circle id="Oval-Copy-7" transform="translate(752.910945, 422.677950) scale(-1, -1) translate(-752.910945, -422.677950) " cx="752.910945" cy="422.67795" r="1"></circle>
                <circle id="Oval-Copy-8" transform="translate(610.910945, 337.677950) scale(-1, -1) translate(-610.910945, -337.677950) " cx="610.910945" cy="337.67795" r="1"></circle>
                <circle id="Oval-Copy-20" transform="translate(668.910945, 416.677950) scale(-1, -1) translate(-668.910945, -416.677950) " cx="668.910945" cy="416.67795" r="1"></circle>
                <circle id="Oval-Copy-9" transform="translate(489.910945, 305.677950) scale(-1, -1) translate(-489.910945, -305.677950) " cx="489.910945" cy="305.67795" r="1"></circle>
                <circle id="Oval-Copy-18" transform="translate(595.910945, 231.677950) scale(-1, -1) translate(-595.910945, -231.677950) " cx="595.910945" cy="231.67795" r="1"></circle>
                <circle id="Oval-Copy-19" transform="translate(636.910945, 287.677950) scale(-1, -1) translate(-636.910945, -287.677950) " cx="636.910945" cy="287.67795" r="1"></circle>
                <circle id="Oval-Copy-10" transform="translate(462.910945, 374.677950) scale(-1, -1) translate(-462.910945, -374.677950) " cx="462.910945" cy="374.67795" r="1"></circle>
                <circle id="Oval-Copy-11" transform="translate(544.910945, 415.677950) scale(-1, -1) translate(-544.910945, -415.677950) " cx="544.910945" cy="415.67795" r="1"></circle>
                <circle id="Oval-Copy-15" transform="translate(477.910945, 526.677950) scale(-1, -1) translate(-477.910945, -526.677950) " cx="477.910945" cy="526.67795" r="1"></circle>
                <circle id="Oval-Copy-12" transform="translate(455.910945, 457.677950) scale(-1, -1) translate(-455.910945, -457.677950) " cx="455.910945" cy="457.67795" r="1"></circle>
                <circle id="Oval-Copy-14" transform="translate(536.910945, 485.677950) scale(-1, -1) translate(-536.910945, -485.677950) " cx="536.910945" cy="485.67795" r="1"></circle>
                <circle id="Oval-Copy-5" transform="translate(439.910945, 298.677950) scale(-1, -1) translate(-439.910945, -298.677950) " cx="439.910945" cy="298.67795" r="1.5"></circle>
                <circle id="Oval-Copy-2" transform="translate(477.910945, 425.677950) scale(-1, -1) translate(-477.910945, -425.677950) " cx="477.910945" cy="425.67795" r="1.5"></circle>
                <circle id="Oval-Copy-13" transform="translate(552.910945, 568.677950) scale(-1, -1) translate(-552.910945, -568.677950) " cx="552.910945" cy="568.67795" r="1.5"></circle>
                <circle id="Oval" transform="translate(1120.910945, 558.677950) scale(-1, -1) translate(-1120.910945, -558.677950) " cx="1120.91094" cy="558.67795" r="1.5"></circle>
                <circle id="Oval-Copy-17" transform="translate(744.910945, 590.677950) scale(-1, -1) translate(-744.910945, -590.677950) " cx="744.910945" cy="590.67795" r="1.5"></circle>
                <circle id="Oval-Copy-3" transform="translate(1036.910945, 452.677950) scale(-1, -1) translate(-1036.910945, -452.677950) " cx="1036.91094" cy="452.67795" r="1.5"></circle>
                <circle id="Oval-Copy-6" transform="translate(1135.910945, 298.677950) scale(-1, -1) translate(-1135.910945, -298.677950) " cx="1135.91094" cy="298.67795" r="1.5"></circle>
                <circle id="Oval-Copy-4" transform="translate(945.910945, 586.677950) scale(-1, -1) translate(-945.910945, -586.677950) " cx="945.910945" cy="586.67795" r="1.5"></circle>
                <circle id="Oval-Copy-16" transform="translate(834.910945, 541.677950) scale(-1, -1) translate(-834.910945, -541.677950) " cx="834.910945" cy="541.67795" r="1.5"></circle>
                <circle id="Oval-Copy-7" transform="translate(884.910945, 479.677950) scale(-1, -1) translate(-884.910945, -479.677950) " cx="884.910945" cy="479.67795" r="1"></circle>
                <circle id="Oval-Copy-8" transform="translate(1066.910945, 584.677950) scale(-1, -1) translate(-1066.910945, -584.677950) " cx="1066.91094" cy="584.67795" r="1"></circle>
                <circle id="Oval-Copy-8" transform="translate(1026.410945, 564.177950) scale(-1, -1) translate(-1026.410945, -564.177950) " cx="1026.41094" cy="564.17795" r="1"></circle>
                <circle id="Oval-Copy-9" transform="translate(1147.910945, 596.677950) scale(-1, -1) translate(-1147.910945, -596.677950) " cx="1147.91094" cy="596.67795" r="1"></circle>
                <circle id="Oval-Copy-10" transform="translate(1174.910945, 527.677950) scale(-1, -1) translate(-1174.910945, -527.677950) " cx="1174.91094" cy="527.67795" r="1"></circle>
                <circle id="Oval-Copy-11" transform="translate(1092.910945, 486.677950) scale(-1, -1) translate(-1092.910945, -486.677950) " cx="1092.91094" cy="486.67795" r="1"></circle>
                <circle id="Oval-Copy-15" transform="translate(1159.910945, 375.677950) scale(-1, -1) translate(-1159.910945, -375.677950) " cx="1159.91094" cy="375.67795" r="1"></circle>
                <circle id="Oval-Copy-12" transform="translate(1181.910945, 444.677950) scale(-1, -1) translate(-1181.910945, -444.677950) " cx="1181.91094" cy="444.67795" r="1"></circle>
                <circle id="Oval-Copy-14" transform="translate(1100.910945, 416.677950) scale(-1, -1) translate(-1100.910945, -416.677950) " cx="1100.91094" cy="416.67795" r="1"></circle>
                <circle id="Oval-Copy-5" transform="translate(1197.910945, 603.677950) scale(-1, -1) translate(-1197.910945, -603.677950) " cx="1197.91094" cy="603.67795" r="1.5"></circle>
                <circle id="Oval-Copy-2" transform="translate(1159.910945, 476.677950) scale(-1, -1) translate(-1159.910945, -476.677950) " cx="1159.91094" cy="476.67795" r="1.5"></circle>
                <circle id="Oval-Copy-13" transform="translate(1084.910945, 333.677950) scale(-1, -1) translate(-1084.910945, -333.677950) " cx="1084.91094" cy="333.67795" r="1.5"></circle>
                <circle id="Oval" cx="880.910945" cy="468.67795" r="1.5"></circle>
                <circle id="Oval-Copy-3" cx="796.910945" cy="362.67795" r="1.5"></circle>
                <circle id="Oval-Copy-6" cx="895.910945" cy="208.67795" r="1.5"></circle>
                <circle id="Oval-Copy-4" cx="705.910945" cy="496.67795" r="1.5"></circle>
                <circle id="Oval-Copy-21" cx="812.910945" cy="391.67795" r="1.5"></circle>
                <circle id="Oval-Copy-7" cx="644.910945" cy="389.67795" r="1"></circle>
                <circle id="Oval-Copy-8" cx="786.910945" cy="474.67795" r="1"></circle>
                <circle id="Oval-Copy-20" cx="728.910945" cy="395.67795" r="1"></circle>
                <circle id="Oval-Copy-9" cx="907.910945" cy="506.67795" r="1"></circle>
                <circle id="Oval-Copy-18" cx="801.910945" cy="580.67795" r="1"></circle>
                <circle id="Oval-Copy-19" cx="760.910945" cy="524.67795" r="1"></circle>
                <circle id="Oval-Copy-10" cx="934.910945" cy="437.67795" r="1"></circle>
                <circle id="Oval-Copy-11" cx="852.910945" cy="396.67795" r="1"></circle>
                <circle id="Oval-Copy-15" cx="919.910945" cy="285.67795" r="1"></circle>
                <circle id="Oval-Copy-12" cx="941.910945" cy="354.67795" r="1"></circle>
                <circle id="Oval-Copy-14" cx="860.910945" cy="326.67795" r="1"></circle>
                <circle id="Oval-Copy-5" cx="957.910945" cy="513.67795" r="1.5"></circle>
                <circle id="Oval-Copy-2" cx="919.910945" cy="386.67795" r="1.5"></circle>
                <circle id="Oval-Copy-13" cx="844.910945" cy="243.67795" r="1.5"></circle>
                <circle id="Oval" transform="translate(882.910945, 901.677950) scale(-1, -1) translate(-882.910945, -901.677950) " cx="882.910945" cy="901.67795" r="1.5"></circle>
                <circle id="Oval-Copy-17" transform="translate(506.910945, 933.677950) scale(-1, -1) translate(-506.910945, -933.677950) " cx="506.910945" cy="933.67795" r="1.5"></circle>
                <circle id="Oval-Copy-3" transform="translate(798.910945, 795.677950) scale(-1, -1) translate(-798.910945, -795.677950) " cx="798.910945" cy="795.67795" r="1.5"></circle>
                <circle id="Oval-Copy-6" transform="translate(897.910945, 641.677950) scale(-1, -1) translate(-897.910945, -641.677950) " cx="897.910945" cy="641.67795" r="1.5"></circle>
                <circle id="Oval-Copy-4" transform="translate(707.910945, 929.677950) scale(-1, -1) translate(-707.910945, -929.677950) " cx="707.910945" cy="929.67795" r="1.5"></circle>
                <circle id="Oval-Copy-16" transform="translate(596.910945, 884.677950) scale(-1, -1) translate(-596.910945, -884.677950) " cx="596.910945" cy="884.67795" r="1.5"></circle>
                <circle id="Oval-Copy-7" transform="translate(646.910945, 822.677950) scale(-1, -1) translate(-646.910945, -822.677950) " cx="646.910945" cy="822.67795" r="1"></circle>
                <circle id="Oval-Copy-8" transform="translate(828.910945, 927.677950) scale(-1, -1) translate(-828.910945, -927.677950) " cx="828.910945" cy="927.67795" r="1"></circle>
                <circle id="Oval-Copy-8" transform="translate(869.410945, 1023.177950) scale(-1, -1) translate(-869.410945, -1023.177950) " cx="869.410945" cy="1023.17795" r="1"></circle>
                <circle id="Oval-Copy-9" transform="translate(909.910945, 939.677950) scale(-1, -1) translate(-909.910945, -939.677950) " cx="909.910945" cy="939.67795" r="1"></circle>
                <circle id="Oval-Copy-10" transform="translate(936.910945, 870.677950) scale(-1, -1) translate(-936.910945, -870.677950) " cx="936.910945" cy="870.67795" r="1"></circle>
                <circle id="Oval-Copy-11" transform="translate(854.910945, 829.677950) scale(-1, -1) translate(-854.910945, -829.677950) " cx="854.910945" cy="829.67795" r="1"></circle>
                <circle id="Oval-Copy-15" transform="translate(921.910945, 718.677950) scale(-1, -1) translate(-921.910945, -718.677950) " cx="921.910945" cy="718.67795" r="1"></circle>
                <circle id="Oval-Copy-12" transform="translate(943.910945, 787.677950) scale(-1, -1) translate(-943.910945, -787.677950) " cx="943.910945" cy="787.67795" r="1"></circle>
                <circle id="Oval-Copy-14" transform="translate(862.910945, 759.677950) scale(-1, -1) translate(-862.910945, -759.677950) " cx="862.910945" cy="759.67795" r="1"></circle>
                <circle id="Oval-Copy-5" transform="translate(959.910945, 946.677950) scale(-1, -1) translate(-959.910945, -946.677950) " cx="959.910945" cy="946.67795" r="1.5"></circle>
                <circle id="Oval-Copy-2" transform="translate(921.910945, 819.677950) scale(-1, -1) translate(-921.910945, -819.677950) " cx="921.910945" cy="819.67795" r="1.5"></circle>
                <circle id="Oval-Copy-13" transform="translate(846.910945, 676.677950) scale(-1, -1) translate(-846.910945, -676.677950) " cx="846.910945" cy="676.67795" r="1.5"></circle>
                <circle id="Oval" cx="642.910945" cy="811.67795" r="1.5"></circle>
                <circle id="Oval-Copy-3" cx="558.910945" cy="705.67795" r="1.5"></circle>
                <circle id="Oval-Copy-6" cx="657.910945" cy="551.67795" r="1.5"></circle>
                <circle id="Oval-Copy-4" cx="467.910945" cy="839.67795" r="1.5"></circle>
                <circle id="Oval-Copy-21" cx="574.910945" cy="734.67795" r="1.5"></circle>
                <circle id="Oval-Copy-7" cx="406.910945" cy="732.67795" r="1"></circle>
                <circle id="Oval-Copy-8" cx="548.910945" cy="817.67795" r="1"></circle>
                <circle id="Oval-Copy-20" cx="490.910945" cy="738.67795" r="1"></circle>
                <circle id="Oval-Copy-9" cx="669.910945" cy="849.67795" r="1"></circle>
                <circle id="Oval-Copy-18" cx="563.910945" cy="923.67795" r="1"></circle>
                <circle id="Oval-Copy-19" cx="522.910945" cy="867.67795" r="1"></circle>
                <circle id="Oval-Copy-10" cx="696.910945" cy="780.67795" r="1"></circle>
                <circle id="Oval-Copy-11" cx="614.910945" cy="739.67795" r="1"></circle>
                <circle id="Oval-Copy-15" cx="681.910945" cy="628.67795" r="1"></circle>
                <circle id="Oval-Copy-12" cx="703.910945" cy="697.67795" r="1"></circle>
                <circle id="Oval-Copy-14" cx="622.910945" cy="669.67795" r="1"></circle>
                <circle id="Oval-Copy-5" cx="719.910945" cy="856.67795" r="1.5"></circle>
                <circle id="Oval-Copy-2" cx="681.910945" cy="729.67795" r="1.5"></circle>
                <circle id="Oval-Copy-13" cx="606.910945" cy="586.67795" r="1.5"></circle>
                <circle id="Oval-Copy-17" transform="translate(884.910945, 1221.677950) scale(1, -1) translate(-884.910945, -1221.677950) " cx="884.910945" cy="1221.67795" r="1.5"></circle>
                <circle id="Oval-Copy-3" transform="translate(592.910945, 1083.677950) scale(1, -1) translate(-592.910945, -1083.677950) " cx="592.910945" cy="1083.67795" r="1.5"></circle>
                <circle id="Oval-Copy-6" transform="translate(493.910945, 929.677950) scale(1, -1) translate(-493.910945, -929.677950) " cx="493.910945" cy="929.67795" r="1.5"></circle>
                <circle id="Oval-Copy-4" transform="translate(683.910945, 1177.677950) scale(1, -1) translate(-683.910945, -1177.677950) " cx="683.910945" cy="1177.67795" r="1.5"></circle>
                <circle id="Oval-Copy-8" transform="translate(562.910945, 1215.677950) scale(1, -1) translate(-562.910945, -1215.677950) " cx="562.910945" cy="1215.67795" r="1"></circle>
                <circle id="Oval-Copy-9" transform="translate(481.910945, 1227.677950) scale(1, -1) translate(-481.910945, -1227.677950) " cx="481.910945" cy="1227.67795" r="1"></circle>
                <circle id="Oval-Copy-10" transform="translate(454.910945, 1158.677950) scale(1, -1) translate(-454.910945, -1158.677950) " cx="454.910945" cy="1158.67795" r="1"></circle>
                <circle id="Oval-Copy-11" transform="translate(536.910945, 1117.677950) scale(1, -1) translate(-536.910945, -1117.677950) " cx="536.910945" cy="1117.67795" r="1"></circle>
                <circle id="Oval-Copy-15" transform="translate(469.910945, 1006.677950) scale(1, -1) translate(-469.910945, -1006.677950) " cx="469.910945" cy="1006.67795" r="1"></circle>
                <circle id="Oval-Copy-12" transform="translate(447.910945, 1075.677950) scale(1, -1) translate(-447.910945, -1075.677950) " cx="447.910945" cy="1075.67795" r="1"></circle>
                <circle id="Oval-Copy-14" transform="translate(528.910945, 1047.677950) scale(1, -1) translate(-528.910945, -1047.677950) " cx="528.910945" cy="1047.67795" r="1"></circle>
                <circle id="Oval-Copy-2" transform="translate(469.910945, 1107.677950) scale(1, -1) translate(-469.910945, -1107.677950) " cx="469.910945" cy="1107.67795" r="1.5"></circle>
                <circle id="Oval-Copy-13" transform="translate(544.910945, 964.677950) scale(1, -1) translate(-544.910945, -964.677950) " cx="544.910945" cy="964.67795" r="1.5"></circle>
                <circle id="Oval" transform="translate(748.910945, 1099.677950) scale(-1, 1) translate(-748.910945, -1099.677950) " cx="748.910945" cy="1099.67795" r="1.5"></circle>
                <circle id="Oval-Copy-6" transform="translate(733.910945, 839.677950) scale(-1, 1) translate(-733.910945, -839.677950) " cx="733.910945" cy="839.67795" r="1.5"></circle>
                <circle id="Oval-Copy-4" transform="translate(923.910945, 1127.677950) scale(-1, 1) translate(-923.910945, -1127.677950) " cx="923.910945" cy="1127.67795" r="1.5"></circle>
                <circle id="Oval-Copy-21" transform="translate(816.910945, 1022.677950) scale(-1, 1) translate(-816.910945, -1022.677950) " cx="816.910945" cy="1022.67795" r="1.5"></circle>
                <circle id="Oval-Copy-7" transform="translate(984.910945, 1020.677950) scale(-1, 1) translate(-984.910945, -1020.677950) " cx="984.910945" cy="1020.67795" r="1"></circle>
                <circle id="Oval-Copy-8" transform="translate(842.910945, 1105.677950) scale(-1, 1) translate(-842.910945, -1105.677950) " cx="842.910945" cy="1105.67795" r="1"></circle>
                <circle id="Oval-Copy-20" transform="translate(900.910945, 1026.677950) scale(-1, 1) translate(-900.910945, -1026.677950) " cx="900.910945" cy="1026.67795" r="1"></circle>
                <circle id="Oval-Copy-9" transform="translate(721.910945, 1137.677950) scale(-1, 1) translate(-721.910945, -1137.677950) " cx="721.910945" cy="1137.67795" r="1"></circle>
                <circle id="Oval-Copy-18" transform="translate(827.910945, 1211.677950) scale(-1, 1) translate(-827.910945, -1211.677950) " cx="827.910945" cy="1211.67795" r="1"></circle>
                <circle id="Oval-Copy-19" transform="translate(868.910945, 1155.677950) scale(-1, 1) translate(-868.910945, -1155.677950) " cx="868.910945" cy="1155.67795" r="1"></circle>
                <circle id="Oval-Copy-10" transform="translate(694.910945, 1068.677950) scale(-1, 1) translate(-694.910945, -1068.677950) " cx="694.910945" cy="1068.67795" r="1"></circle>
                <circle id="Oval-Copy-11" transform="translate(776.910945, 1027.677950) scale(-1, 1) translate(-776.910945, -1027.677950) " cx="776.910945" cy="1027.67795" r="1"></circle>
                <circle id="Oval-Copy-15" transform="translate(709.910945, 916.677950) scale(-1, 1) translate(-709.910945, -916.677950) " cx="709.910945" cy="916.67795" r="1"></circle>
                <circle id="Oval-Copy-12" transform="translate(687.910945, 985.677950) scale(-1, 1) translate(-687.910945, -985.677950) " cx="687.910945" cy="985.67795" r="1"></circle>
                <circle id="Oval-Copy-14" transform="translate(768.910945, 957.677950) scale(-1, 1) translate(-768.910945, -957.677950) " cx="768.910945" cy="957.67795" r="1"></circle>
                <circle id="Oval-Copy-2" transform="translate(709.910945, 1017.677950) scale(-1, 1) translate(-709.910945, -1017.677950) " cx="709.910945" cy="1017.67795" r="1.5"></circle>
                <circle id="Oval-Copy-13" transform="translate(784.910945, 874.677950) scale(-1, 1) translate(-784.910945, -874.677950) " cx="784.910945" cy="874.67795" r="1.5"></circle>
                <circle id="Oval-Copy-17" cx="484.910945" cy="1010.67795" r="1.5"></circle>
                <circle id="Oval-Copy-3" cx="192.910945" cy="1148.67795" r="1.5"></circle>
                <circle id="Oval-Copy-4" cx="283.910945" cy="1054.67795" r="1.5"></circle>
                <circle id="Oval" transform="translate(348.910945, 1132.677950) scale(-1, -1) translate(-348.910945, -1132.677950) " cx="348.910945" cy="1132.67795" r="1.5"></circle>
                <circle id="Oval-Copy-3" transform="translate(432.910945, 1238.677950) scale(-1, -1) translate(-432.910945, -1238.677950) " cx="432.910945" cy="1238.67795" r="1.5"></circle>
                <circle id="Oval-Copy-4" transform="translate(523.910945, 1104.677950) scale(-1, -1) translate(-523.910945, -1104.677950) " cx="523.910945" cy="1104.67795" r="1.5"></circle>
                <circle id="Oval-Copy-21" transform="translate(416.910945, 1209.677950) scale(-1, -1) translate(-416.910945, -1209.677950) " cx="416.910945" cy="1209.67795" r="1.5"></circle>
                <circle id="Oval-Copy-7" transform="translate(584.910945, 1211.677950) scale(-1, -1) translate(-584.910945, -1211.677950) " cx="584.910945" cy="1211.67795" r="1"></circle>
                <circle id="Oval-Copy-8" transform="translate(442.910945, 1126.677950) scale(-1, -1) translate(-442.910945, -1126.677950) " cx="442.910945" cy="1126.67795" r="1"></circle>
                <circle id="Oval-Copy-20" transform="translate(500.910945, 1205.677950) scale(-1, -1) translate(-500.910945, -1205.677950) " cx="500.910945" cy="1205.67795" r="1"></circle>
                <circle id="Oval-Copy-9" transform="translate(321.910945, 1094.677950) scale(-1, -1) translate(-321.910945, -1094.677950) " cx="321.910945" cy="1094.67795" r="1"></circle>
                <circle id="Oval-Copy-18" transform="translate(427.910945, 1020.677950) scale(-1, -1) translate(-427.910945, -1020.677950) " cx="427.910945" cy="1020.67795" r="1"></circle>
                <circle id="Oval-Copy-19" transform="translate(468.910945, 1076.677950) scale(-1, -1) translate(-468.910945, -1076.677950) " cx="468.910945" cy="1076.67795" r="1"></circle>
                <circle id="Oval-Copy-10" transform="translate(294.910945, 1163.677950) scale(-1, -1) translate(-294.910945, -1163.677950) " cx="294.910945" cy="1163.67795" r="1"></circle>
                <circle id="Oval-Copy-11" transform="translate(376.910945, 1204.677950) scale(-1, -1) translate(-376.910945, -1204.677950) " cx="376.910945" cy="1204.67795" r="1"></circle>
                <circle id="Oval-Copy-15" transform="translate(309.910945, 1315.677950) scale(-1, -1) translate(-309.910945, -1315.677950) " cx="309.910945" cy="1315.67795" r="1"></circle>
                <circle id="Oval-Copy-12" transform="translate(287.910945, 1246.677950) scale(-1, -1) translate(-287.910945, -1246.677950) " cx="287.910945" cy="1246.67795" r="1"></circle>
                <circle id="Oval-Copy-14" transform="translate(368.910945, 1274.677950) scale(-1, -1) translate(-368.910945, -1274.677950) " cx="368.910945" cy="1274.67795" r="1"></circle>
                <circle id="Oval-Copy-2" transform="translate(309.910945, 1214.677950) scale(-1, -1) translate(-309.910945, -1214.677950) " cx="309.910945" cy="1214.67795" r="1.5"></circle>
                <circle id="Oval-Copy-13" transform="translate(384.910945, 1357.677950) scale(-1, -1) translate(-384.910945, -1357.677950) " cx="384.910945" cy="1357.67795" r="1.5"></circle>
                <circle id="Oval-Copy-3" cx="1239.91094" cy="1019.67795" r="1.5"></circle>
                <circle id="Oval-Copy-6" cx="1140.91094" cy="1173.67795" r="1.5"></circle>
                <circle id="Oval-Copy-4" cx="1330.91094" cy="925.67795" r="1.5"></circle>
                <circle id="Oval-Copy-8" cx="1209.91094" cy="887.67795" r="1"></circle>
                <circle id="Oval-Copy-9" cx="1128.91094" cy="875.67795" r="1"></circle>
                <circle id="Oval-Copy-10" cx="1101.91094" cy="944.67795" r="1"></circle>
                <circle id="Oval-Copy-11" cx="1183.91094" cy="985.67795" r="1"></circle>
                <circle id="Oval-Copy-15" cx="1116.91094" cy="1096.67795" r="1"></circle>
                <circle id="Oval-Copy-12" cx="1094.91094" cy="1027.67795" r="1"></circle>
                <circle id="Oval-Copy-14" cx="1175.91094" cy="1055.67795" r="1"></circle>
                <circle id="Oval-Copy-2" cx="1116.91094" cy="995.67795" r="1.5"></circle>
                <circle id="Oval" transform="translate(1395.910945, 1003.677950) scale(-1, -1) translate(-1395.910945, -1003.677950) " cx="1395.91094" cy="1003.67795" r="1.5"></circle>
                <circle id="Oval-Copy-6" transform="translate(1380.910945, 1263.677950) scale(-1, -1) translate(-1380.910945, -1263.677950) " cx="1380.91094" cy="1263.67795" r="1.5"></circle>
                <circle id="Oval-Copy-9" transform="translate(1368.910945, 965.677950) scale(-1, -1) translate(-1368.910945, -965.677950) " cx="1368.91094" cy="965.67795" r="1"></circle>
                <circle id="Oval-Copy-10" transform="translate(1341.910945, 1034.677950) scale(-1, -1) translate(-1341.910945, -1034.677950) " cx="1341.91094" cy="1034.67795" r="1"></circle>
                <circle id="Oval-Copy-11" transform="translate(1423.910945, 1075.677950) scale(-1, -1) translate(-1423.910945, -1075.677950) " cx="1423.91094" cy="1075.67795" r="1"></circle>
                <circle id="Oval-Copy-15" transform="translate(1356.910945, 1186.677950) scale(-1, -1) translate(-1356.910945, -1186.677950) " cx="1356.91094" cy="1186.67795" r="1"></circle>
                <circle id="Oval-Copy-12" transform="translate(1334.910945, 1117.677950) scale(-1, -1) translate(-1334.910945, -1117.677950) " cx="1334.91094" cy="1117.67795" r="1"></circle>
                <circle id="Oval-Copy-14" transform="translate(1415.910945, 1145.677950) scale(-1, -1) translate(-1415.910945, -1145.677950) " cx="1415.91094" cy="1145.67795" r="1"></circle>
                <circle id="Oval-Copy-2" transform="translate(1356.910945, 1085.677950) scale(-1, -1) translate(-1356.910945, -1085.677950) " cx="1356.91094" cy="1085.67795" r="1.5"></circle>
                <circle id="Oval-Copy-13" transform="translate(1431.910945, 1228.677950) scale(-1, -1) translate(-1431.910945, -1228.677950) " cx="1431.91094" cy="1228.67795" r="1.5"></circle>
                <circle id="Oval" transform="translate(278.931126, 984.589055) scale(-1, -1) rotate(60.000000) translate(-278.931126, -984.589055) " cx="278.931126" cy="984.589055" r="1.5"></circle>
                <circle id="Oval-Copy-3" transform="translate(328.729819, 858.842921) scale(-1, -1) rotate(60.000000) translate(-328.729819, -858.842921) " cx="328.729819" cy="858.842921" r="1.5"></circle>
                <circle id="Oval-Copy-6" transform="translate(511.597731, 867.579436) scale(-1, -1) rotate(60.000000) translate(-511.597731, -867.579436) " cx="511.597731" cy="867.579436" r="1.5"></circle>
                <circle id="Oval-Copy-7" transform="translate(229.347133, 740.707060) scale(-1, -1) rotate(60.000000) translate(-229.347133, -740.707060) " cx="229.347133" cy="740.70706" r="1"></circle>
                <circle id="Oval-Copy-8" transform="translate(229.414465, 950.823684) scale(-1, -1) rotate(60.000000) translate(-229.414465, -950.823684) " cx="229.414465" cy="950.823684" r="1"></circle>
                <circle id="Oval-Copy-8" transform="translate(226.917986, 905.499655) scale(-1, -1) rotate(60.000000) translate(-226.917986, -905.499655) " cx="226.917986" cy="905.499655" r="1"></circle>
                <circle id="Oval-Copy-9" transform="translate(259.522161, 1026.971741) scale(-1, -1) rotate(60.000000) translate(-259.522161, -1026.971741) " cx="259.522161" cy="1026.97174" r="1"></circle>
                <circle id="Oval-Copy-10" transform="translate(332.777913, 1015.854427) scale(-1, -1) rotate(60.000000) translate(-332.777913, -1015.854427) " cx="332.777913" cy="1015.85443" r="1"></circle>
                <circle id="Oval-Copy-11" transform="translate(327.284955, 924.340344) scale(-1, -1) rotate(60.000000) translate(-327.284955, -924.340344) " cx="327.284955" cy="924.340344" r="1"></circle>
                <circle id="Oval-Copy-15" transform="translate(456.913775, 926.864046) scale(-1, -1) rotate(60.000000) translate(-456.913775, -926.864046) " cx="456.913775" cy="926.864046" r="1"></circle>
                <circle id="Oval-Copy-12" transform="translate(408.158022, 980.416605) scale(-1, -1) rotate(60.000000) translate(-408.158022, -980.416605) " cx="408.158022" cy="980.416605" r="1"></circle>
                <circle id="Oval-Copy-14" transform="translate(391.906733, 896.268547) scale(-1, -1) rotate(60.000000) translate(-391.906733, -896.268547) " cx="391.906733" cy="896.268547" r="1"></circle>
                <circle id="Oval-Copy-5" transform="translate(278.459983, 1073.773011) scale(-1, -1) rotate(60.000000) translate(-278.459983, -1073.773011) " cx="278.459983" cy="1073.77301" r="1.5"></circle>
                <circle id="Oval-Copy-2" transform="translate(369.445209, 977.364046) scale(-1, -1) rotate(60.000000) translate(-369.445209, -977.364046) " cx="369.445209" cy="977.364046" r="1.5"></circle>
                <circle id="Oval-Copy-13" transform="translate(455.786842, 840.912141) scale(-1, -1) rotate(60.000000) translate(-455.786842, -840.912141) " cx="455.786842" cy="840.912141" r="1.5"></circle>
                <circle id="Oval" transform="translate(236.873412, 731.742958) rotate(-60.000000) translate(-236.873412, -731.742958) " cx="236.873412" cy="731.742958" r="1.5"></circle>
                <circle id="Oval-Copy-3" transform="translate(286.672105, 605.996825) rotate(-60.000000) translate(-286.672105, -605.996825) " cx="286.672105" cy="605.996825" r="1.5"></circle>
                <circle id="Oval-Copy-6" transform="translate(469.540017, 614.733340) rotate(-60.000000) translate(-469.540017, -614.733340) " cx="469.540017" cy="614.73334" r="1.5"></circle>
                <circle id="Oval-Copy-21" transform="translate(269.557368, 634.353231) rotate(-60.000000) translate(-269.557368, -634.353231) " cx="269.557368" cy="634.353231" r="1.5"></circle>
                <circle id="Oval-Copy-20" transform="translate(224.093267, 563.607097) rotate(-60.000000) translate(-224.093267, -563.607097) " cx="224.093267" cy="563.607097" r="1"></circle>
                <circle id="Oval-Copy-9" transform="translate(217.464447, 774.125644) rotate(-60.000000) translate(-217.464447, -774.125644) " cx="217.464447" cy="774.125644" r="1"></circle>
                <circle id="Oval-Copy-10" transform="translate(290.720200, 763.008330) rotate(-60.000000) translate(-290.720200, -763.008330) " cx="290.7202" cy="763.00833" r="1"></circle>
                <circle id="Oval-Copy-11" transform="translate(285.227241, 671.494247) rotate(-60.000000) translate(-285.227241, -671.494247) " cx="285.227241" cy="671.494247" r="1"></circle>
                <circle id="Oval-Copy-15" transform="translate(414.856061, 674.017949) rotate(-60.000000) translate(-414.856061, -674.017949) " cx="414.856061" cy="674.017949" r="1"></circle>
                <circle id="Oval-Copy-12" transform="translate(366.100308, 727.570508) rotate(-60.000000) translate(-366.100308, -727.570508) " cx="366.100308" cy="727.570508" r="1"></circle>
                <circle id="Oval-Copy-14" transform="translate(349.849020, 643.422450) rotate(-60.000000) translate(-349.849020, -643.422450) " cx="349.84902" cy="643.42245" r="1"></circle>
                <circle id="Oval-Copy-5" transform="translate(236.402269, 820.926915) rotate(-60.000000) translate(-236.402269, -820.926915) " cx="236.402269" cy="820.926915" r="1.5"></circle>
                <circle id="Oval-Copy-2" transform="translate(327.387495, 724.517949) rotate(-60.000000) translate(-327.387495, -724.517949) " cx="327.387495" cy="724.517949" r="1.5"></circle>
                <circle id="Oval-Copy-13" transform="translate(413.729128, 588.066044) rotate(-60.000000) translate(-413.729128, -588.066044) " cx="413.729128" cy="588.066044" r="1.5"></circle>
                <circle id="Oval-Copy-17" transform="translate(1282.910945, 876.677950) scale(-1, -1) translate(-1282.910945, -876.677950) " cx="1282.91094" cy="876.67795" r="1.5"></circle>
                <circle id="Oval-Copy-16" transform="translate(1372.910945, 827.677950) scale(-1, -1) translate(-1372.910945, -827.677950) " cx="1372.91094" cy="827.67795" r="1.5"></circle>
                <circle id="Oval-Copy-7" transform="translate(1422.910945, 765.677950) scale(-1, -1) translate(-1422.910945, -765.677950) " cx="1422.91094" cy="765.67795" r="1"></circle>
                <circle id="Oval" cx="1418.91094" cy="754.67795" r="1.5"></circle>
                <circle id="Oval-Copy-3" cx="1334.91094" cy="648.67795" r="1.5"></circle>
                <circle id="Oval-Copy-6" cx="1433.91094" cy="494.67795" r="1.5"></circle>
                <circle id="Oval-Copy-4" cx="1243.91094" cy="782.67795" r="1.5"></circle>
                <circle id="Oval-Copy-21" cx="1350.91094" cy="677.67795" r="1.5"></circle>
                <circle id="Oval-Copy-7" cx="1182.91094" cy="675.67795" r="1"></circle>
                <circle id="Oval-Copy-8" cx="1324.91094" cy="760.67795" r="1"></circle>
                <circle id="Oval-Copy-20" cx="1266.91094" cy="681.67795" r="1"></circle>
                <circle id="Oval-Copy-18" cx="1339.91094" cy="866.67795" r="1"></circle>
                <circle id="Oval-Copy-19" cx="1298.91094" cy="810.67795" r="1"></circle>
                <circle id="Oval-Copy-11" cx="1390.91094" cy="682.67795" r="1"></circle>
                <circle id="Oval-Copy-14" cx="1398.91094" cy="612.67795" r="1"></circle>
                <circle id="Oval-Copy-13" cx="1382.91094" cy="529.67795" r="1.5"></circle>
                <circle id="Oval-Copy-3" transform="translate(1387.270181, 416.342921) scale(1, -1) rotate(120.000000) translate(-1387.270181, -416.342921) " cx="1387.27018" cy="416.342921" r="1.5"></circle>
                <circle id="Oval-Copy-6" transform="translate(1303.402269, 579.079436) scale(1, -1) rotate(120.000000) translate(-1303.402269, -579.079436) " cx="1303.40227" cy="579.079436" r="1.5"></circle>
                <circle id="Oval-Copy-7" transform="translate(1334.652867, 271.207060) scale(1, -1) rotate(120.000000) translate(-1334.652867, -271.207060) " cx="1334.65287" cy="271.20706" r="1"></circle>
                <circle id="Oval-Copy-15" transform="translate(1382.086225, 561.364046) scale(1, -1) rotate(120.000000) translate(-1382.086225, -561.364046) " cx="1382.08623" cy="561.364046" r="1"></circle>
                <circle id="Oval-Copy-14" transform="translate(1388.093267, 489.768547) scale(1, -1) rotate(120.000000) translate(-1388.093267, -489.768547) " cx="1388.09327" cy="489.768547" r="1"></circle>
                <circle id="Oval-Copy-13" transform="translate(1308.213158, 517.412141) scale(1, -1) rotate(120.000000) translate(-1308.213158, -517.412141) " cx="1308.21316" cy="517.412141" r="1.5"></circle>
                <circle id="Oval" transform="translate(1323.126588, 273.242958) scale(-1, 1) rotate(-120.000000) translate(-1323.126588, -273.242958) " cx="1323.12659" cy="273.242958" r="1.5"></circle>
                <circle id="Oval-Copy-3" transform="translate(1189.327895, 253.496825) scale(-1, 1) rotate(-120.000000) translate(-1189.327895, -253.496825) " cx="1189.32789" cy="253.496825" r="1.5"></circle>
                <circle id="Oval-Copy-6" transform="translate(1105.459983, 416.233340) scale(-1, 1) rotate(-120.000000) translate(-1105.459983, -416.233340) " cx="1105.45998" cy="416.23334" r="1.5"></circle>
                <circle id="Oval-Copy-21" transform="translate(1222.442632, 252.853231) scale(-1, 1) rotate(-120.000000) translate(-1222.442632, -252.853231) " cx="1222.44263" cy="252.853231" r="1.5"></circle>
                <circle id="Oval-Copy-9" transform="translate(1369.535553, 277.625644) scale(-1, 1) rotate(-120.000000) translate(-1369.535553, -277.625644) " cx="1369.53555" cy="277.625644" r="1"></circle>
                <circle id="Oval-Copy-10" transform="translate(1323.279800, 335.508330) scale(-1, 1) rotate(-120.000000) translate(-1323.279800, -335.508330) " cx="1323.2798" cy="335.50833" r="1"></circle>
                <circle id="Oval-Copy-11" transform="translate(1246.772759, 284.994247) scale(-1, 1) rotate(-120.000000) translate(-1246.772759, -284.994247) " cx="1246.77276" cy="284.994247" r="1"></circle>
                <circle id="Oval-Copy-15" transform="translate(1184.143939, 398.517949) scale(-1, 1) rotate(-120.000000) translate(-1184.143939, -398.517949) " cx="1184.14394" cy="398.517949" r="1"></circle>
                <circle id="Oval-Copy-12" transform="translate(1254.899692, 383.070508) scale(-1, 1) rotate(-120.000000) translate(-1254.899692, -383.070508) " cx="1254.89969" cy="383.070508" r="1"></circle>
                <circle id="Oval-Copy-14" transform="translate(1190.150980, 326.922450) scale(-1, 1) rotate(-120.000000) translate(-1190.150980, -326.922450) " cx="1190.15098" cy="326.92245" r="1"></circle>
                <circle id="Oval-Copy-5" transform="translate(1400.597731, 317.426915) scale(-1, 1) rotate(-120.000000) translate(-1400.597731, -317.426915) " cx="1400.59773" cy="317.426915" r="1.5"></circle>
                <circle id="Oval-Copy-2" transform="translate(1271.612505, 348.017949) scale(-1, 1) rotate(-120.000000) translate(-1271.612505, -348.017949) " cx="1271.6125" cy="348.017949" r="1.5"></circle>
                <circle id="Oval-Copy-13" transform="translate(1110.270872, 354.566044) scale(-1, 1) rotate(-120.000000) translate(-1110.270872, -354.566044) " cx="1110.27087" cy="354.566044" r="1.5"></circle>
                <circle id="Oval" transform="translate(909.931126, 932.089055) scale(-1, -1) rotate(120.000000) translate(-909.931126, -932.089055) " cx="909.931126" cy="932.089055" r="1.5"></circle>
                <circle id="Oval-Copy-17" transform="translate(1070.218313, 590.463504) scale(-1, -1) rotate(120.000000) translate(-1070.218313, -590.463504) " cx="1070.21831" cy="590.463504" r="1.5"></circle>
                <circle id="Oval-Copy-3" transform="translate(1043.729819, 912.342921) scale(-1, -1) rotate(120.000000) translate(-1043.729819, -912.342921) " cx="1043.72982" cy="912.342921" r="1.5"></circle>
                <circle id="Oval-Copy-6" transform="translate(1127.597731, 1075.079436) scale(-1, -1) rotate(120.000000) translate(-1127.597731, -1075.079436) " cx="1127.59773" cy="1075.07944" r="1.5"></circle>
                <circle id="Oval-Copy-4" transform="translate(973.182415, 766.534610) scale(-1, -1) rotate(120.000000) translate(-973.182415, -766.534610) " cx="973.182415" cy="766.53461" r="1.5"></circle>
                <circle id="Oval-Copy-16" transform="translate(1067.653558, 692.905790) scale(-1, -1) rotate(120.000000) translate(-1067.653558, -692.905790) " cx="1067.65356" cy="692.90579" r="1.5"></circle>
                <circle id="Oval-Copy-7" transform="translate(1096.347133, 767.207060) scale(-1, -1) rotate(120.000000) translate(-1096.347133, -767.207060) " cx="1096.34713" cy="767.20706" r="1"></circle>
                <circle id="Oval-Copy-8" transform="translate(914.414465, 872.323684) scale(-1, -1) rotate(120.000000) translate(-914.414465, -872.323684) " cx="914.414465" cy="872.323684" r="1"></circle>
                <circle id="Oval-Copy-8" transform="translate(952.417986, 847.499655) scale(-1, -1) rotate(120.000000) translate(-952.417986, -847.499655) " cx="952.417986" cy="847.499655" r="1"></circle>
                <circle id="Oval-Copy-9" transform="translate(863.522161, 936.471741) scale(-1, -1) rotate(120.000000) translate(-863.522161, -936.471741) " cx="863.522161" cy="936.471741" r="1"></circle>
                <circle id="Oval-Copy-10" transform="translate(909.777913, 994.354427) scale(-1, -1) rotate(120.000000) translate(-909.777913, -994.354427) " cx="909.777913" cy="994.354427" r="1"></circle>
                <circle id="Oval-Copy-11" transform="translate(986.284955, 943.840344) scale(-1, -1) rotate(120.000000) translate(-986.284955, -943.840344) " cx="986.284955" cy="943.840344" r="1"></circle>
                <circle id="Oval-Copy-15" transform="translate(1048.913775, 1057.364046) scale(-1, -1) rotate(120.000000) translate(-1048.913775, -1057.364046) " cx="1048.91377" cy="1057.36405" r="1"></circle>
                <circle id="Oval-Copy-12" transform="translate(978.158022, 1041.916605) scale(-1, -1) rotate(120.000000) translate(-978.158022, -1041.916605) " cx="978.158022" cy="1041.9166" r="1"></circle>
                <circle id="Oval-Copy-14" transform="translate(1042.906733, 985.768547) scale(-1, -1) rotate(120.000000) translate(-1042.906733, -985.768547) " cx="1042.90673" cy="985.768547" r="1"></circle>
                <circle id="Oval-Copy-2" transform="translate(961.445209, 1006.864046) scale(-1, -1) rotate(120.000000) translate(-961.445209, -1006.864046) " cx="961.445209" cy="1006.86405" r="1.5"></circle>
                <circle id="Oval-Copy-13" transform="translate(1122.786842, 1013.412141) scale(-1, -1) rotate(120.000000) translate(-1122.786842, -1013.412141) " cx="1122.78684" cy="1013.41214" r="1.5"></circle>
                <circle id="Oval" transform="translate(1107.873412, 769.242958) rotate(-120.000000) translate(-1107.873412, -769.242958) " cx="1107.87341" cy="769.242958" r="1.5"></circle>
                <circle id="Oval-Copy-3" transform="translate(1241.672105, 749.496825) rotate(-120.000000) translate(-1241.672105, -749.496825) " cx="1241.67211" cy="749.496825" r="1.5"></circle>
                <circle id="Oval-Copy-6" transform="translate(1325.540017, 912.233340) rotate(-120.000000) translate(-1325.540017, -912.233340) " cx="1325.54002" cy="912.23334" r="1.5"></circle>
                <circle id="Oval-Copy-4" transform="translate(1171.124701, 603.688513) rotate(-120.000000) translate(-1171.124701, -603.688513) " cx="1171.1247" cy="603.688513" r="1.5"></circle>
                <circle id="Oval-Copy-21" transform="translate(1208.557368, 748.853231) rotate(-120.000000) translate(-1208.557368, -748.853231) " cx="1208.55737" cy="748.853231" r="1.5"></circle>
                <circle id="Oval-Copy-7" transform="translate(1294.289419, 604.360963) rotate(-120.000000) translate(-1294.289419, -604.360963) " cx="1294.28942" cy="604.360963" r="1"></circle>
                <circle id="Oval-Copy-8" transform="translate(1149.677260, 684.836570) rotate(-120.000000) translate(-1149.677260, -684.836570) " cx="1149.67726" cy="684.83657" r="1"></circle>
                <circle id="Oval-Copy-20" transform="translate(1247.093267, 674.107097) rotate(-120.000000) translate(-1247.093267, -674.107097) " cx="1247.09327" cy="674.107097" r="1"></circle>
                <circle id="Oval-Copy-9" transform="translate(1061.464447, 773.625644) rotate(-120.000000) translate(-1061.464447, -773.625644) " cx="1061.46445" cy="773.625644" r="1"></circle>
                <circle id="Oval-Copy-18" transform="translate(1050.378567, 644.826952) rotate(-120.000000) translate(-1050.378567, -644.826952) " cx="1050.37857" cy="644.826952" r="1"></circle>
                <circle id="Oval-Copy-19" transform="translate(1119.375990, 637.319910) rotate(-120.000000) translate(-1119.375990, -637.319910) " cx="1119.37599" cy="637.31991" r="1"></circle>
                <circle id="Oval-Copy-10" transform="translate(1107.720200, 831.508330) rotate(-120.000000) translate(-1107.720200, -831.508330) " cx="1107.7202" cy="831.50833" r="1"></circle>
                <circle id="Oval-Copy-11" transform="translate(1184.227241, 780.994247) rotate(-120.000000) translate(-1184.227241, -780.994247) " cx="1184.22724" cy="780.994247" r="1"></circle>
                <circle id="Oval-Copy-15" transform="translate(1246.856061, 894.517949) rotate(-120.000000) translate(-1246.856061, -894.517949) " cx="1246.85606" cy="894.517949" r="1"></circle>
                <circle id="Oval-Copy-12" transform="translate(1176.100308, 879.070508) rotate(-120.000000) translate(-1176.100308, -879.070508) " cx="1176.10031" cy="879.070508" r="1"></circle>
                <circle id="Oval-Copy-14" transform="translate(1240.849020, 822.922450) rotate(-120.000000) translate(-1240.849020, -822.922450) " cx="1240.84902" cy="822.92245" r="1"></circle>
                <circle id="Oval-Copy-5" transform="translate(1030.402269, 813.426915) rotate(-120.000000) translate(-1030.402269, -813.426915) " cx="1030.40227" cy="813.426915" r="1.5"></circle>
                <circle id="Oval-Copy-2" transform="translate(1159.387495, 844.017949) rotate(-120.000000) translate(-1159.387495, -844.017949) " cx="1159.3875" cy="844.017949" r="1.5"></circle>
                <circle id="Oval-Copy-13" transform="translate(1320.729128, 850.566044) rotate(-120.000000) translate(-1320.729128, -850.566044) " cx="1320.72913" cy="850.566044" r="1.5"></circle>
            </g>
        </g>
    </g>
</svg>